<svg xmlns="http://www.w3.org/2000/svg" width="100" height="100" viewBox="0 0 100 100" fill="none">
  <path d="M50 5C25.15 5 5 25.15 5 50C5 74.85 25.15 95 50 95C74.85 95 95 74.85 95 50C95 25.15 74.85 5 50 5Z" stroke="#007EA7" stroke-width="4" stroke-linecap="round" stroke-linejoin="round"/>
  <path d="M37.5 35C41.6421 35 45 31.6421 45 27.5C45 23.3579 41.6421 20 37.5 20C33.3579 20 30 23.3579 30 27.5C30 31.6421 33.3579 35 37.5 35Z" fill="#FF9F1C"/>
  <path d="M62.5 35C66.6421 35 70 31.6421 70 27.5C70 23.3579 66.6421 20 62.5 20C58.3579 20 55 23.3579 55 27.5C55 31.6421 58.3579 35 62.5 35Z" fill="#FF9F1C"/>
  <path d="M30 55C30 55 37.5 65 50 65C62.5 65 70 55 70 55" stroke="#FF9F1C" stroke-width="4" stroke-linecap="round" stroke-linejoin="round"/>
  <path d="M30 75V80M40 75V82.5M50 75V85M60 75V82.5M70 75V80" stroke="#007EA7" stroke-width="4" stroke-linecap="round" stroke-linejoin="round"/>
</svg>
